<svg width="308" height="109" viewBox="0 0 308 109" fill="none" xmlns="http://www.w3.org/2000/svg">
<path d="M39.5 108.05C32.2 108.05 25.6 106.8 19.7 104.3C13.9 101.8 9.3 98.2 5.9 93.5C2.5 88.8 0.75 83.25 0.65 76.85H23.15C23.45 81.15 24.95 84.55 27.65 87.05C30.45 89.55 34.25 90.8 39.05 90.8C43.95 90.8 47.8 89.65 50.6 87.35C53.4 84.95 54.8 81.85 54.8 78.05C54.8 74.95 53.85 72.4 51.95 70.4C50.05 68.4 47.65 66.85 44.75 65.75C41.95 64.55 38.05 63.25 33.05 61.85C26.25 59.85 20.7 57.9 16.4 56C12.2 54 8.55 51.05 5.45 47.15C2.45 43.15 0.95 37.85 0.95 31.25C0.95 25.05 2.5 19.65 5.6 15.05C8.7 10.45 13.05 6.94999 18.65 4.55C24.25 2.05 30.65 0.799999 37.85 0.799999C48.65 0.799999 57.4 3.45 64.1 8.75C70.9 13.95 74.65 21.25 75.35 30.65H52.25C52.05 27.05 50.5 24.1 47.6 21.8C44.8 19.4 41.05 18.2 36.35 18.2C32.25 18.2 28.95 19.25 26.45 21.35C24.05 23.45 22.85 26.5 22.85 30.5C22.85 33.3 23.75 35.65 25.55 37.55C27.45 39.35 29.75 40.85 32.45 42.05C35.25 43.15 39.15 44.45 44.15 45.95C50.95 47.95 56.5 49.95 60.8 51.95C65.1 53.95 68.8 56.95 71.9 60.95C75 64.95 76.55 70.2 76.55 76.7C76.55 82.3 75.1 87.5 72.2 92.3C69.3 97.1 65.05 100.95 59.45 103.85C53.85 106.65 47.2 108.05 39.5 108.05ZM154.456 87.05H112.756L105.856 107H83.8063L121.456 2.14999H145.906L183.556 107H161.356L154.456 87.05ZM148.756 70.25L133.606 26.45L118.456 70.25H148.756ZM307.279 2.3V107H286.279V38.9L258.229 107H242.329L214.129 38.9V107H193.129V2.3H216.979L250.279 80.15L283.579 2.3H307.279Z" fill="white"/>
</svg>
